<?xml version="1.0" encoding="utf-8"?>
<!DOCTYPE svg PUBLIC "-//W3C//DTD SVG 1.1//EN" "http://www.w3.org/Graphics/SVG/1.1/DTD/svg11.dtd">
<svg version="1.1" baseProfile="full" xmlns="http://www.w3.org/2000/svg" height="600" width="800" x="0px" y="0px" viewBox="0 0 800 600">
     <style>
        .label {
            font: 14px monospace;
            fill: #000;
        }
        .title {
            font: 20px sans-serif;
        }
        .action {
            font: 16px sans-serif;
            font-style: italic;
            font-weight: bold;
        }
        .line {
            stroke: #000;
            fill: transparent;
        }
        
        .thick-line {
            stroke: #000;
            fill: transparent;
            stroke-width: 4;
        }
        .fill {
            fill: #000;
        }
     </style>
     <text  x="20" y="40" class="label title">PolyVinyl Architecture</text>

     <g transform="translate(0,200)">
         <text x="10" y="20" class="action">Request</text>
     </g>

     <g transform="translate(100,80)">
         <path d="M 0 0 L 400 0 L 400 380 L 0 380 L 0 0" class="line" />
         <text x="20" y="-10" class="label">Service</text>
     </g>

     <g transform="translate(100,340)">
         <path d="M 20 0 L 180 0 L 180 100 L 20 100 L 20 0" class="line" />
         <text x="30" y="30" class="label">Auth</text>
     </g>

     <g transform="translate(300,340)">
         <path d="M 20 0 L 180 0 L 180 100 L 20 100 L 20 0" class="line" />
         <text x="30" y="30" class="label">Lin (db files)</text>
     </g>

     <g transform="translate(140,200)">
         <text x="10" y="20" class="action">Route</text>
     </g>

     <g transform="translate(510,200)">
         <text x="10" y="20" class="action">Web Response</text>
     </g>


     <g transform="translate(0,-80)">

         <g transform="translate(320,280)">
            <path d="M 0 0 A 50 50 0 1 1 0 30" class="thick-line" />
            <path d="M -4 60 L 25 41 L -2 29" class="thick-line fill" />
         </g>
         <g transform="translate(300,170)">
             <text x="20" y="20" class="label">Handler(s)</text>
         </g>

         <g transform="translate(300,225)">
             <path d="M 0 0 L 20 0 L 20 30 L 0 30 L 0 0" class="line" />
             <text x="4" y="20" class="label">H</text>
         </g>
         <g transform="translate(380,210)">
             <path d="M 0 0 L 20 0 L 20 30 L 0 30 L 0 0" class="line" />
             <text x="4" y="20" class="label">H</text>
         </g>
         <g transform="translate(430,260)">
             <path d="M 0 0 L 20 0 L 20 30 L 0 30 L 0 0" class="line" />
             <text x="4" y="20" class="label">H</text>
         </g>
         <g transform="translate(415,330)">
             <path d="M 0 0 L 20 0 L 20 30 L 0 30 L 0 0" class="line" />
             <text x="4" y="20" class="label">H</text>
         </g>
         <g transform="translate(320,350)">
             <path d="M 0 0 L 20 0 L 20 30 L 0 30 L 0 0" class="line" />
             <text x="4" y="20" class="label">H</text>
         </g>

         <g transform="translate(326,274)">
             <path d="M 0 20 L 40 40 L 80 20 L 40 0 L 0 20" class="line" />
             <text x="20" y="24" class="label">Data</text>
         </g>
     </g>

     <g transform="translate(20,550)">
        <path d="M 0 0 L 580 0" class="thick-line" />
        <path d="M 580 0 L 560 -10 L 560 10 L 580 0" class="thick-line fill" />
        <text x="20" y="-16" class="label">Web Request to Web Response</text>
        <text x="20" y="25" class="label">Handler(s) set values in the shared Data object,</text>
        <text x="20" y="45" class="label">call the Auth service, and/or read or write data files using the Lin format.</text>
     </g>

</svg>
